<svg width="28" height="28" viewBox="0 0 28 28" fill="none" xmlns="http://www.w3.org/2000/svg">
<path d="M3.07012 11.0537L16.4461 24.4298L16.3459 23.727C16.2532 23.0796 16.307 22.3854 16.4569 21.7754C16.601 21.1889 16.8673 20.5455 17.3103 20.1025L22.4986 14.9141C23.7903 13.5959 24.51 11.8213 24.5013 9.97552C24.4925 8.12822 23.7548 6.35908 22.4485 5.05283C21.1423 3.74657 19.3731 3.00885 17.5258 3.00008C15.68 2.99132 13.9054 3.71102 12.5871 5.0028L7.39885 10.1897C7.39882 10.1898 7.39879 10.1898 7.39876 10.1898C6.95577 10.6328 6.31235 10.899 5.72594 11.0431C5.11615 11.1929 4.42223 11.2467 3.77509 11.1542L3.07012 11.0537ZM3.07012 11.0537L3.77434 11.1541L3.07012 11.0537ZM5.88028 19.8483C5.8811 19.7532 5.89004 19.6585 5.90688 19.5654L7.85044 21.5089C7.75726 21.5258 7.6626 21.5347 7.56746 21.5355C7.34536 21.5375 7.1251 21.4951 6.91953 21.411C6.71396 21.3269 6.52719 21.2027 6.37014 21.0457C6.21308 20.8886 6.08888 20.7019 6.00477 20.4963C5.92067 20.2907 5.87835 20.0704 5.88028 19.8483Z" stroke="#110C2C" stroke-width="2"/>
</svg>
